<svg width="34" height="34" viewBox="0 0 34 34" fill="none" xmlns="http://www.w3.org/2000/svg">
<g clip-path="url(#clip0_645_3255)">
<path fill-rule="evenodd" clip-rule="evenodd" d="M17 1.94986C17.675 1.94986 18.2222 2.49707 18.2222 3.17209L18.2222 15.7777L30.8279 15.7777C31.5029 15.7777 32.0501 16.3249 32.0501 17C32.0501 17.675 31.5029 18.2222 30.8279 18.2222L18.2222 18.2222L18.2222 30.8278C18.2222 31.5028 17.675 32.05 17 32.05C16.325 32.05 15.7778 31.5028 15.7778 30.8278L15.7778 18.2222L3.17213 18.2222C2.49712 18.2222 1.94991 17.675 1.94991 17C1.94991 16.3249 2.49712 15.7777 3.17213 15.7777L15.7778 15.7777L15.7778 3.17209C15.7778 2.49707 16.325 1.94986 17 1.94986Z" fill="white"/>
</g>
<defs>
<clipPath id="clip0_645_3255">
<rect width="24" height="24" fill="white" transform="translate(17 0.0294189) rotate(45)"/>
</clipPath>
</defs>
</svg>
